<?xml version="1.0" encoding="UTF-8"?>
<svg id="Camada_1" xmlns="http://www.w3.org/2000/svg" version="1.1" viewBox="0 0 24 24">
  <!-- Generator: Adobe Illustrator 29.0.0, SVG Export Plug-In . SVG Version: 2.1.0 Build 186)  -->
  <defs>
    <style>
      .st0, .st1 {
        fill: #fff;
      }

      .st1 {
        isolation: isolate;
        opacity: .3;
      }
    </style>
  </defs>
  <path class="st1" d="M21,22H3c-.6,0-1-.4-1-1V5c0-.6.4-1,1-1h18c.6,0,1,.4,1,1v16c0,.6-.4,1-1,1Z"/>
  <path class="st0" d="M6,6c-.6,0-1-.4-1-1v-2c0-.6.4-1,1-1s1,.4,1,1v2c0,.6-.4,1-1,1ZM11,5v-2c0-.6-.4-1-1-1s-1,.4-1,1v2c0,.6.4,1,1,1s1-.4,1-1ZM15,5v-2c0-.6-.4-1-1-1s-1,.4-1,1v2c0,.6.4,1,1,1s1-.4,1-1ZM19,5v-2c0-.6-.4-1-1-1s-1,.4-1,1v2c0,.6.4,1,1,1s1-.4,1-1Z"/>
  <path class="st0" d="M8.8,13.1c.4,0,.7-.1.9-.3s.4-.5.4-.9-.1-.6-.3-.8c-.2-.2-.5-.3-.8-.3s-.4,0-.6,0c-.2.1-.3.2-.4.3,0,.1-.2.2-.3.4s-.2.3-.2.5,0,0-.2.2c-.1,0-.2,0-.4,0s-.3,0-.4-.2c0,0-.2-.3-.2-.5s0-.4.2-.6c0-.2.3-.4.5-.6s.5-.4.9-.5c.4,0,.7-.2,1.2-.2s.7.1,1,.2c.3.1.6.3.8.4.2.1.4.4.5.7.1.3.2.5.2.8s-.1.7-.3,1c-.2.3-.4.6-.7.8.3.2.6.4.8.6.2.2.4.4.5.7.1.3.2.5.2.8s-.1.7-.2,1c0,.3-.4.6-.6.9-.2.3-.6.5-1,.6-.4.1-.8.2-1.3.2s-.9-.1-1.3-.3c-.4-.2-.7-.4-.9-.6-.2-.2-.4-.5-.5-.8-.1-.3-.2-.5-.2-.7s0-.4.2-.5c0-.1.3-.2.5-.2s.2,0,.3.1.2.1.2.2c.2.5.4.9.7,1.2.3.3.6.4,1,.4s.5,0,.7-.2.4-.3.6-.5c.2-.2.2-.5.2-.8,0-.5-.1-.8-.4-1.1-.3-.3-.6-.4-1-.4h-.7c-.2,0-.4-.1-.5-.2,0-.1-.2-.3-.2-.4,0-.2,0-.3.2-.5s.3-.2.6-.2h.3ZM15.3,17.5v-5.3c-1,.8-1.7,1.1-2,1.1s-.3-.1-.4-.2c0-.1-.2-.3-.2-.5s.1-.3.2-.4c.1,0,.3-.2.7-.4.5-.2.9-.5,1.1-.7.2-.2.5-.5.8-.8s.4-.5.4-.6.2,0,.4,0,.4,0,.5.2c.1.1.2.4.2.7v6.7c0,.8-.3,1.2-.8,1.2s-.4-.1-.6-.2c-.2-.1-.3-.4-.3-.7Z"/>
</svg>