<?xml version="1.0" encoding="UTF-8"?>
<svg id="Camada_1" xmlns="http://www.w3.org/2000/svg" version="1.1" viewBox="0 0 24 24">
  <!-- Generator: Adobe Illustrator 29.0.0, SVG Export Plug-In . SVG Version: 2.1.0 Build 186)  -->
  <defs>
    <style>
      .st0, .st1 {
        fill: #fff;
      }

      .st1 {
        isolation: isolate;
        opacity: .3;
      }
    </style>
  </defs>
  <path class="st1" d="M19,22H5c-.6,0-1-.4-1-1V3c0-.6.4-1,1-1h9l6,6v13c0,.6-.4,1-1,1ZM12.5,18c0-.6.1-.5-.5-.5h-3.5c-.6,0-.5-.1-.5.5s0,.5.5.5l3.5-.5c.6,0,.5.6.5,0ZM16.5,13c0-.6.1-.5-.5-.5h-7.5c-.6,0-.5-.1-.5.5s0,.5.5.5h7c.6,0,1,.1,1-.5ZM12.5,8c0-.6.1-.5-.5-.5h-4c-.6,0-.5,0-.5.5s0,.5.5.5h4c.6,0,.5.1.5-.5Z"/>
  <path class="st0" d="M8,17h4c.6,0,1,.4,1,1h0c0,.6-.4,1-1,1h-4c-.6,0-1-.4-1-1h0c0-.6.4-1,1-1Z"/>
  <path class="st0" d="M8,12h8c.6,0,1,.4,1,1h0c0,.6-.4,1-1,1h-8c-.6,0-1-.4-1-1h0c0-.6.4-1,1-1Z"/>
  <path class="st0" d="M8,7h4c.6,0,1,.4,1,1h0c0,.6-.4,1-1,1h-4c-.6,0-1-.4-1-1h0c0-.6.4-1,1-1Z"/>
  <path class="st0" d="M15,8h5L14,2v5c0,.6.4,1,1,1Z"/>
</svg>