<?xml version="1.0" encoding="UTF-8"?>
<svg id="Camada_1" xmlns="http://www.w3.org/2000/svg" version="1.1" viewBox="0 0 24 24">
  <!-- Generator: Adobe Illustrator 29.0.0, SVG Export Plug-In . SVG Version: 2.1.0 Build 186)  -->
  <defs>
    <style>
      .st0, .st1 {
        fill: #fff;
      }

      .st1 {
        isolation: isolate;
        opacity: .5;
      }
    </style>
  </defs>
  <path class="st1" d="M17.7,15.8l4.4,4.4c.4.4.4,1,0,1.4h0c-.4.4-1,.4-1.4,0l-4.4-4.4c-.4-.4-.4-1,0-1.4h0c.4-.4,1-.4,1.4,0Z"/>
  <path class="st0" d="M11,19c-4.4,0-8-3.6-8-8S6.6,3,11,3s8,3.6,8,8-3.6,8-8,8ZM11,5c-3.5,0-6,2.5-6,6s2.5,6,6,6,6-2.5,6-6-2.5-6-6-6Z"/>
</svg>