<?xml version="1.0" encoding="UTF-8"?>
<svg id="Camada_1" xmlns="http://www.w3.org/2000/svg" version="1.1" viewBox="0 0 24 24">
  <!-- Generator: Adobe Illustrator 29.0.0, SVG Export Plug-In . SVG Version: 2.1.0 Build 186)  -->
  <defs>
    <style>
      .st0, .st1 {
        fill: #fff;
      }

      .st1 {
        isolation: isolate;
        opacity: .3;
      }
    </style>
  </defs>
  <path class="st1" d="M2,21v-7c0-.6.4-1,1-1h18c.6,0,1,.4,1,1v7c0,.6-.4,1-1,1H3c-.6,0-1-.4-1-1Z"/>
  <path class="st0" d="M2,10V3c0-.6.4-1,1-1h18c.6,0,1,.4,1,1v7c0,.6-.4,1-1,1H3c-.6,0-1-.4-1-1Z"/>
</svg>