<?xml version="1.0" encoding="UTF-8"?>
<svg id="Camada_1" xmlns="http://www.w3.org/2000/svg" version="1.1" viewBox="0 0 24 24">
  <!-- Generator: Adobe Illustrator 29.0.0, SVG Export Plug-In . SVG Version: 2.1.0 Build 186)  -->
  <defs>
    <style>
      .st0, .st1 {
        fill: #fff;
      }

      .st1 {
        fill-rule: evenodd;
        isolation: isolate;
        opacity: .3;
      }
    </style>
  </defs>
  <path class="st1" d="M2,4.6c0-1.5,1.2-2.6,2.6-2.6h8.8c.5,0,.8.7.4,1l-1.4,1.3c-.6.5-1.3.8-2,.8h-3.3c-1.1,0-2,.9-2,2v9.7c0,1.1.9,2,2,2h9.7c1.1,0,2-.9,2-2v-3.1c0-.8.3-1.6.9-2.2l1.2-1.1c.4-.4,1,0,1,.4v8.5c0,1.5-1.2,2.6-2.6,2.6H4.6c-1.5,0-2.6-1.2-2.6-2.6V4.6Z"/>
  <path class="st0" d="M10.9,11.2c-.4-.4-.4-1,0-1.4l7.1-7.1c.8-.8,2-.8,2.8,0l.5.5c.8.8.8,2,0,2.8l-7.1,7.1c-.4.4-1,.4-1.4,0l-1.9-1.9Z"/>
  <path class="st0" d="M8.8,12l-.7,2.3c-.2.7.4,1.4,1.1,1.3l2.7-.4c.6,0,.8-.8.4-1.2l-2.3-2.3c-.4-.4-1-.2-1.2.3Z"/>
</svg>