<?xml version="1.0" encoding="UTF-8"?>
<svg id="Camada_1" xmlns="http://www.w3.org/2000/svg" version="1.1" viewBox="0 0 24 24">
  <!-- Generator: Adobe Illustrator 29.0.0, SVG Export Plug-In . SVG Version: 2.1.0 Build 186)  -->
  <defs>
    <style>
      .st0, .st1 {
        fill: #fff;
      }

      .st1 {
        isolation: isolate;
        opacity: .3;
      }
    </style>
  </defs>
  <path class="st1" d="M11.4,7.3c1.5-1.5,3.8-1.5,5.3,0s1.5,3.8,0,5.3-3.8,1.5-5.3,0c-1.5-1.4-1.5-3.8,0-5.3ZM8.4,4.3c-3.1,3.1-3.1,8.2,0,11.3,3.1,3.1,8.2,3.1,11.3,0s3.1-8.2,0-11.3c-3.2-3.1-8.2-3.1-11.3,0Z"/>
  <path class="st0" d="M11.3,17.5c-1.3.5-2.9.2-4-.8-1.5-1.5-1.5-3.8,0-5.3,1.5-1.5,3.8-1.5,5.3,0,.6.6,1,1.5,1.1,2.3,1.1,0,2.2-.2,3-1.1.4-.4.7-.8.8-1.3-.4-1.1-1-2.1-1.9-2.9-3.1-3.1-8.2-3.1-11.3,0-3.1,3.1-3.1,8.2,0,11.3,3.1,3.1,8.2,3.1,11.3,0s1.3-1.5,1.6-2.4c-1.8.8-4,.9-5.9.2Z"/>
</svg>