<?xml version="1.0" encoding="UTF-8"?>
<svg id="Camada_1" xmlns="http://www.w3.org/2000/svg" version="1.1" viewBox="0 0 24 24">
  <!-- Generator: Adobe Illustrator 29.0.0, SVG Export Plug-In . SVG Version: 2.1.0 Build 186)  -->
  <defs>
    <style>
      .st0, .st1 {
        fill: #fff;
      }

      .st1 {
        isolation: isolate;
        opacity: .3;
      }
    </style>
  </defs>
  <path class="st0" d="M6.5,11c2.5,0,4.5-2,4.5-4.5s-2-4.5-4.5-4.5S2,4,2,6.5s2,4.5,4.5,4.5Z"/>
  <path class="st1" d="M13,6.5c0-2.5,2-4.5,4.5-4.5s4.5,2,4.5,4.5-2,4.5-4.5,4.5-4.5-2-4.5-4.5ZM6.5,22c2.5,0,4.5-2,4.5-4.5s-2-4.5-4.5-4.5-4.5,2-4.5,4.5,2,4.5,4.5,4.5ZM17.5,22c2.5,0,4.5-2,4.5-4.5s-2-4.5-4.5-4.5-4.5,2-4.5,4.5,2,4.5,4.5,4.5Z"/>
</svg>