<?xml version="1.0" encoding="UTF-8"?>
<svg id="Camada_1" xmlns="http://www.w3.org/2000/svg" version="1.1" viewBox="0 0 24 24">
  <!-- Generator: Adobe Illustrator 29.0.0, SVG Export Plug-In . SVG Version: 2.1.0 Build 186)  -->
  <defs>
    <style>
      .st0, .st1 {
        fill: #fff;
      }

      .st1 {
        isolation: isolate;
        opacity: .3;
      }
    </style>
  </defs>
  <path class="st0" d="M18,21.6c-1.4-1.2-8.9-1.3-11.7-.4-.6.2-1.2,0-1.6-.4l-2.7-2.8c2.2-2.2,8.8-2.9,13.8-2.2.4,2.5,1.2,4.7,2.2,5.8ZM18.8,2.8c-.4-.4-1-.6-1.6-.4-2.8.9-10.3.8-11.7-.4,1.3,1.3,1.9,3.5,2.2,5.7,1.3.2,2.6.3,4,.3,4.1,0,8.1-.8,9.8-2.5l-2.7-2.7Z"/>
  <path class="st1" d="M21.2,17.3c.2.6,0,1.2-.4,1.6l-2.8,2.7c-2.2-2.2-2.9-8.8-2.2-13.8,2.5-.4,4.6-1.1,5.7-2.2-1.1,1.4-1.3,8.9-.3,11.7ZM8,11.7c0-2.7-.3-7.5-2.5-9.7l-2.7,2.8c-.4.4-.6,1-.4,1.6.3,1,.6,2.8.7,5.3,0,3.8-.7,5.9-1,6.3,1.1-1.1,3.2-1.8,5.7-2.2.2-1.6.2-3.1.2-4.1Z"/>
</svg>